<?xml version="1.0" encoding="utf-8"?>
<!-- Generator: Adobe Illustrator 16.0.0, SVG Export Plug-In . SVG Version: 6.00 Build 0)  -->
<!DOCTYPE svg PUBLIC "-//W3C//DTD SVG 1.1//EN" "http://www.w3.org/Graphics/SVG/1.1/DTD/svg11.dtd">
<svg version="1.1" id="Layer_1" xmlns="http://www.w3.org/2000/svg" xmlns:xlink="http://www.w3.org/1999/xlink" x="0px" y="0px"
	 width="366.896px" height="319.841px" viewBox="0 0 366.896 319.841" enable-background="new 0 0 366.896 319.841"
	 xml:space="preserve">
<g>
	<polygon fill="#E34F35" points="161.569,111.683 182.505,74.789 204.327,113.257 226.186,74.994 183.092,0 139.822,75.3 	"/>
	<polygon fill="#E34F35" points="323.687,244.655 323.687,244.655 292.788,190.889 296.597,197.516 	"/>
	<polygon fill="#EFC600" points="62.012,286.841 86.12,244.841 43.209,244.841 0,319.841 85.706,319.841 104.493,286.841 	"/>
	<polygon fill="#3D96E1" points="323.687,244.655 296.597,197.516 292.788,190.889 263.929,140.667 274.812,159.816 
		323.329,244.841 278.879,244.841 302.993,286.841 262.157,286.841 280.832,319.841 281.19,319.841 366.896,319.841 	"/>
	<polygon fill="#3D96E1" points="104.493,286.841 85.706,319.841 86.774,319.841 105.447,286.841 	"/>
	<polygon fill="#E27F00" points="122.252,181.06 161.569,111.73 139.935,75.049 91.008,159.827 42.497,244.841 43.209,244.841 
		86.12,244.841 	"/>
	<polygon fill="#9857BC" points="242.741,181.06 278.879,244.841 323.329,244.841 274.812,159.816 263.929,140.713 226.304,74.812 
		226.186,75.005 204.327,113.31 	"/>
	<polygon fill="#43CC63" points="182.505,286.841 104.493,286.841 85.706,319.841 140.595,319.841 183.807,319.841 226.3,319.841 
		280.832,319.841 262.157,286.841 	"/>
</g>
</svg>
