<?xml version="1.0" encoding="utf-8"?>
<!-- Generator: Adobe Illustrator 16.0.0, SVG Export Plug-In . SVG Version: 6.00 Build 0)  -->
<!DOCTYPE svg PUBLIC "-//W3C//DTD SVG 1.1//EN" "http://www.w3.org/Graphics/SVG/1.1/DTD/svg11.dtd">
<svg version="1.1" id="Layer_1" xmlns="http://www.w3.org/2000/svg" xmlns:xlink="http://www.w3.org/1999/xlink" x="0px" y="0px"
	 width="112.235px" height="97.841px" viewBox="0 0 112.235 97.841" enable-background="new 0 0 112.235 97.841"
	 xml:space="preserve">
<g>
	<polygon fill="#E34F35" points="49.425,34.165 55.829,22.878 62.505,34.646 69.191,22.941 56.009,0 42.772,23.035 	"/>
	<polygon fill="#E34F35" points="99.018,74.841 99.018,74.841 89.565,58.394 90.73,60.421 	"/>
	<polygon fill="#EFC600" points="18.97,87.841 26.345,74.841 13.218,74.841 0,97.841 26.218,97.841 31.965,87.841 	"/>
	<polygon fill="#3D96E1" points="99.018,74.841 90.73,60.421 89.565,58.394 80.737,43.031 84.066,48.86 98.908,74.841 
		85.311,74.841 92.688,87.841 80.195,87.841 85.908,97.841 86.018,97.841 112.235,97.841 	"/>
	<polygon fill="#3D96E1" points="31.965,87.841 26.218,97.841 26.545,97.841 32.257,87.841 	"/>
	<polygon fill="#E27F00" points="37.397,55.359 49.425,34.165 42.807,22.951 27.84,48.86 13,74.841 13.218,74.841 26.345,74.841 	
		"/>
	<polygon fill="#9857BC" points="74.256,55.359 85.311,74.841 98.908,74.841 84.066,48.86 80.737,43.031 69.228,22.878 
		69.191,22.941 62.505,34.646 	"/>
	<polygon fill="#43CC63" points="55.829,87.841 31.965,87.841 26.218,97.841 43.009,97.841 56.228,97.841 69.227,97.841 
		85.908,97.841 80.195,87.841 	"/>
</g>
</svg>
